<?xml version="1.0" standalone="no"?>
<!DOCTYPE svg PUBLIC "-//W3C//DTD SVG 1.1//EN"
  "http://www.w3.org/Graphics/SVG/1.1/DTD/svg11.dtd">
<svg version="1.1" xmlns="http://www.w3.org/2000/svg"
     width="67.000000pt" height="67.000000pt" viewBox="0 0 67.000000 67.000000"
     preserveAspectRatio="xMidYMid meet">
<g transform="translate(0.000000,67.000000) scale(0.100000,-0.100000)"
fill="#000000" stroke="none">
<path d="M245 647 c-96 -32 -162 -90 -204 -177 -37 -78 -37 -192 0 -270 33
-70 89 -126 159 -159 75 -35 191 -37 265 -3 65 30 138 102 167 166 34 76 32
191 -3 266 -53 111 -156 180 -278 186 -38 2 -83 -2 -106 -9z m205 -48 c147
-66 213 -242 144 -389 -19 -42 -27 -51 -34 -40 -6 8 -10 25 -10 38 0 39 -28
79 -61 91 -18 6 -70 11 -116 11 -76 0 -86 2 -108 25 -15 14 -25 36 -25 51 0
25 1 26 13 11 10 -14 18 -15 53 -6 34 9 47 8 73 -6 18 -9 34 -22 37 -28 2 -7
21 -14 42 -15 33 -1 35 0 15 10 -32 15 -29 29 4 25 23 -3 31 -12 43 -47 8 -23
22 -47 31 -53 21 -13 49 -2 49 19 0 13 -3 14 -15 4 -22 -18 -42 -6 -50 32 -4
18 -12 39 -18 46 -7 9 -6 11 7 6 15 -6 17 -1 14 26 -3 30 -8 34 -50 47 -51 15
-68 30 -47 44 7 4 11 10 9 12 -15 13 -76 37 -93 37 -14 0 -17 5 -13 16 6 15 4
15 -20 0 -30 -20 -59 -14 -50 10 5 14 4 15 -9 4 -8 -7 -15 -21 -15 -32 0 -11
-5 -18 -12 -15 -7 2 -11 12 -10 22 3 16 1 17 -12 6 -9 -8 -16 -18 -16 -23 0
-5 -19 -27 -42 -49 -30 -29 -44 -36 -50 -27 -6 10 -8 8 -8 -4 0 -9 3 -19 8
-21 13 -9 -2 -132 -15 -130 -7 2 -13 -2 -13 -7 0 -6 8 -10 18 -10 11 0 30 -18
45 -41 30 -45 34 -65 15 -72 -7 -3 -3 -6 9 -6 12 -1 23 4 25 11 6 17 82 -22
86 -44 8 -45 -106 -42 -155 4 -73 66 -96 214 -49 313 29 61 86 117 146 144 62
28 168 28 230 0z m-95 -109 c3 -5 -1 -10 -9 -10 -9 0 -16 5 -16 10 0 6 4 10 9
10 6 0 13 -4 16 -10z"/>
</g>
</svg>
